<svg width="175" height="22" viewBox="0 0 175 22" fill="#ffffff" xmlns="http://www.w3.org/2000/svg">
    <path d="M1.0882 0.334044V6.06679L13.1458 3.63017C13.7651 3.50502 14.3439 3.9785 14.3439 4.61036V7.46741H8.33692C2.512 7.46741 0 9.61093 0 13.2655C0 17.0254 2.83965 18.7121 6.77147 18.7121C9.93877 18.7121 12.0139 17.9039 13.4701 16.0766H14.3439V18.3905H20.1688V6.51864C20.1688 2.40729 18.5583 0.334044 11.9689 0.334044H1.0882ZM9.13785 10.7003H14.3439V11.2274C14.3439 13.7926 11.6498 14.6359 9.21066 14.6359C6.77147 14.6359 5.75211 13.898 5.75211 12.7032C5.75211 11.3679 6.69866 10.7003 9.13785 10.7003Z" />
    <path d="M32.4287 4.72439H39.5847V13.998H31.0763L32.4287 4.72439ZM27.6953 0.331924L25.6949 13.998H22.8745V18.3905H48.3585V13.998H45.4096V0.331924H27.6953Z" />
    <path d="M51.2634 0.340002V18.3892H56.7606V5.96236H57.7072L61.9667 14.9581H68.01L72.1603 5.96236H73.1068V18.3892H78.9317V0.340002H70.158L65.9349 9.72231H64.8791L60.5468 0.340002H51.2634Z" />
    <path d="M83.0592 0.334303V18.3892H90.668L97.7307 6.83516H98.6772V18.3892H104.466V0.334303H96.8569L89.7942 11.8883H88.8841V0.334303H83.0592Z" />
    <path d="M108.621 0.336008V22H114.446V16.094H115.211C116.521 17.7456 118.487 18.7295 121.363 18.7295H122.019C126.751 18.7295 130.21 16.1643 130.21 10.4014V8.32812C130.21 2.5652 126.751 0 122.019 0H121.363C118.56 0 116.558 0.948771 115.211 2.5652H114.446V0.336008H108.621ZM119.07 4.39247H119.725C122.528 4.39247 124.385 5.69264 124.385 8.25784V10.4365C124.385 13.0368 122.528 14.337 119.725 14.337H119.07C116.303 14.337 114.446 13.072 114.446 10.4365V8.25784C114.446 5.6575 116.303 4.39247 119.07 4.39247Z" />
    <path d="M158.901 0.335963L155.081 18.392H160.711L163.567 4.72843H169.175V18.392H175V0.335963H158.901Z" />
    <path d="M133.126 0.335924V6.06043L145.183 3.62381C145.803 3.49866 146.381 3.97214 146.381 4.604V7.46929H140.374C134.549 7.46929 132.037 9.61281 132.037 13.2673C132.037 17.0273 134.877 18.714 138.809 18.714C141.976 18.714 144.051 17.9058 145.508 16.0785H146.381V18.392H152.206V6.52052C152.206 2.40917 150.596 0.335924 144.006 0.335924H133.126ZM141.175 10.7021H146.381V11.2292C146.381 13.7944 143.687 14.6378 141.248 14.6378C138.809 14.6378 137.79 13.8999 137.79 12.7051C137.79 11.3698 138.736 10.7021 141.175 10.7021Z" />
</svg>
