<svg width="123.000000" height="123.000000" viewBox="0 0 123 123" fill="none" xmlns="http://www.w3.org/2000/svg" xmlns:xlink="http://www.w3.org/1999/xlink">
	<desc>
			Created with Pixso.
	</desc>
	<defs/>
	<path id="Ellipse 1622" d="M104.579 104.542Q100.317 108.951 95.3052 112.409Q90.3389 115.836 84.8213 118.201Q79.3022 120.566 73.4458 121.777Q67.5332 123 61.5 123Q55.4668 123 49.5542 121.777Q43.6978 120.566 38.1787 118.201Q32.6616 115.836 27.6948 112.409Q22.6826 108.952 18.4214 104.542L20.5786 102.458Q24.6323 106.652 29.3984 109.94Q34.1187 113.197 39.3608 115.443Q44.6016 117.689 50.1621 118.839Q55.7739 120 61.5 120Q67.2261 120 72.8379 118.839Q78.3984 117.689 83.6392 115.443Q88.8813 113.197 93.6016 109.94Q98.3677 106.652 102.421 102.458L104.579 104.542ZM102.422 102.486L102.421 102.458C103.005 101.854 103.938 101.838 104.542 102.421C105.146 103.005 105.162 103.938 104.579 104.542L104.55 104.543L102.422 102.486ZM18.4497 104.543L18.4214 104.542C17.8379 103.938 17.8535 103.005 18.4575 102.421C19.0615 101.838 19.9946 101.854 20.5786 102.458L20.5781 102.486L18.4497 104.543Z" fill-rule="evenodd" fill="#0D42FF"/>
	<path id="Ellipse 1623" d="M0 63Q0 36.9155 18 18.4653Q36.0151 0 61.5 0Q86.9849 0 105 18.4653Q123 36.9155 123 63L120 63Q120 38.1362 102.853 20.5605Q85.7207 3 61.5 3Q37.2793 3 20.1475 20.5605Q3 38.1362 3 63L0 63ZM2.97998 62.98L3 63C3 63.8398 2.33984 64.5 1.5 64.5C0.660156 64.5 0 63.8398 0 63L0.0200195 62.98L2.97998 62.98ZM122.98 62.98L123 63C123 63.8398 122.34 64.5 121.5 64.5C120.66 64.5 120 63.8398 120 63L120.02 62.98L122.98 62.98Z" fill-rule="evenodd" fill="#0D42FF"/>
	<path id="Line 6" d="M58.5 63L112.5 63" stroke="#0D42FF" stroke-width="3.000000" stroke-linejoin="round" stroke-linecap="round"/>
	<path id="Line 6" d="M60 64.5L60 11.5" stroke="#0D42FF" stroke-width="3.000000" stroke-linejoin="round" stroke-linecap="round"/>
</svg>
