<svg width="50.750000" height="51.500000" viewBox="0 0 50.75 51.5" fill="none" xmlns="http://www.w3.org/2000/svg" xmlns:xlink="http://www.w3.org/1999/xlink">
	<desc>
			Created with Pixso.
	</desc>
	<defs/>
	<path id="Ellipse 1627" d="M25.75 51.5Q15.084 51.5 7.54199 43.958Q0 36.416 0 25.75Q0 15.084 7.54199 7.54199Q15.084 0 25.75 0L25.75 1.5Q15.7051 1.5 8.60254 8.60254Q1.5 15.7053 1.5 25.75Q1.5 35.7947 8.60254 42.8975Q15.7056 50 25.75 50L25.75 51.5ZM25.73 50.02L25.75 50C26.1699 50 26.5 50.3301 26.5 50.75C26.5 51.1699 26.1699 51.5 25.75 51.5L25.73 51.48L25.73 50.02Z" fill-rule="evenodd" fill="#0D42FF"/>
	<path id="Ellipse 1629" d="M0.75 25.75C0.75 18.5703 11.9429 12.75 25.75 12.75C39.5571 12.75 50.75 18.5703 50.75 25.75C50.75 32.9297 39.5571 38.75 25.75 38.75C11.9429 38.75 0.75 32.9297 0.75 25.75ZM8.76416 17.8884Q15.7612 14.25 25.75 14.25Q35.7388 14.25 42.7358 17.8884Q48.5239 20.8984 49.1689 24.7661Q49.25 25.2512 49.25 25.75Q49.25 26.2488 49.1689 26.7339Q48.5239 30.6016 42.7358 33.6116Q35.7388 37.25 25.75 37.25Q15.7612 37.25 8.76416 33.6116Q2.97607 30.6016 2.33105 26.7339Q2.25 26.2488 2.25 25.75Q2.25 25.2512 2.33105 24.7661Q2.97607 20.8984 8.76416 17.8884Z" fill-rule="evenodd" fill="#0D42FF"/>
	<circle id="Ellipse 1630" r="12.250000" transform="matrix(-1 -1 -8.74228e-08 8.74228e-08 25.75 25.75)" stroke="#0D42FF" stroke-width="1.500000"/>
</svg>
