<svg width="51" height="52" viewBox="0 0 51 52" fill="none" xmlns="http://www.w3.org/2000/svg">
<path d="M25 0.5C24.7239 0.5 24.5 0.723858 24.5 1C24.5 1.27614 24.7239 1.5 25 1.5V0.5ZM49.5 26C49.5 39.531 38.531 50.5 25 50.5V51.5C39.0833 51.5 50.5 40.0833 50.5 26H49.5ZM25 1.5C38.531 1.5 49.5 12.469 49.5 26H50.5C50.5 11.9167 39.0833 0.5 25 0.5V1.5Z" fill="white"/>
<path d="M49.5 26C49.5 29.3087 46.911 32.4275 42.447 34.7488C38.0076 37.0573 31.84 38.5 25 38.5C18.16 38.5 11.9924 37.0573 7.55301 34.7488C3.08903 32.4275 0.5 29.3087 0.5 26C0.5 22.6913 3.08903 19.5725 7.55301 17.2512C11.9924 14.9427 18.16 13.5 25 13.5C31.84 13.5 38.0076 14.9427 42.447 17.2512C46.911 19.5725 49.5 22.6913 49.5 26Z" stroke="white"/>
<circle cx="25" cy="26" r="12.5" stroke="white"/>
</svg>
