<svg width="123.038086" height="123.037598" viewBox="0 0 123.038 123.038" fill="none" xmlns="http://www.w3.org/2000/svg" xmlns:xlink="http://www.w3.org/1999/xlink">
	<desc>
			Created with Pixso.
	</desc>
	<defs/>
	<path id="Vector" d="M46.7319 90.8369L18.7871 62.8921C59.001 4.79346 113.479 -2.73779 119.441 3.22363L119.814 3.5957C125.776 9.55762 118.244 64.0366 60.1455 104.25M50.8101 72.2275C44.5449 65.9629 44.5449 55.8052 50.8101 49.5405C57.0747 43.2754 67.2324 43.2754 73.4971 49.5405C79.7622 55.8052 79.7622 65.9629 73.4971 72.2275C67.2324 78.4927 57.0747 78.4927 50.8101 72.2275ZM45.1382 32.5249L29.0239 31.7324C24.5063 31.5103 20.0347 32.7261 16.251 35.2046L1.98926 44.5483C1.2417 45.0386 1.38916 46.1753 2.2373 46.4575L25.0977 54.0776M90.5127 77.8994L91.3052 94.0137C91.5273 98.5312 90.3115 103.003 87.833 106.787L78.4893 121.048C77.999 121.796 76.8623 121.648 76.5801 120.8L73.1191 110.418M11.4854 70.7153L3.92285 78.2778M52.3223 111.552L44.7598 119.115M25.0977 84.3276L9.97266 99.4521M38.71 97.9399L23.585 113.065" stroke="#0D42FF" stroke-width="3.000000"/>
</svg>
