<svg width="51.500000" height="51.500000" viewBox="0 0 51.5 51.5" fill="none" xmlns="http://www.w3.org/2000/svg" xmlns:xlink="http://www.w3.org/1999/xlink">
	<desc>
			Created with Pixso.
	</desc>
	<defs/>
	<path id="Rectangle 35965" d="M0 13.25L0 4.75Q0 2.78247 1.39111 1.39136Q2.78271 0 4.75 0L13.25 0L13.25 1.5L4.75 1.5Q1.5 1.5 1.5 4.75L1.5 13.25L0 13.25ZM38.25 0L46.75 0Q48.7173 0 50.1089 1.39136Q51.5 2.78247 51.5 4.75L51.5 13.25L50 13.25L50 4.75Q50 1.5 46.75 1.5L38.25 1.5L38.25 0ZM13.25 51.5L4.75 51.5Q2.78271 51.5 1.39111 50.1086Q0 48.7175 0 46.75L0 38.25L1.5 38.25L1.5 46.75Q1.5 50 4.75 50L13.25 50L13.25 51.5ZM51.5 38.25L51.5 46.75Q51.5 48.7175 50.1089 50.1086Q48.7173 51.5 46.75 51.5L38.25 51.5L38.25 50L46.75 50Q50 50 50 46.75L50 38.25L51.5 38.25ZM1.47998 13.23L1.5 13.25C1.5 13.6699 1.16992 14 0.75 14C0.330078 14 0 13.6699 0 13.25L0.0200195 13.23L1.47998 13.23ZM51.48 13.23L51.5 13.25C51.5 13.6699 51.1699 14 50.75 14C50.3301 14 50 13.6699 50 13.25L50.02 13.23L51.48 13.23ZM38.27 1.47998L38.25 1.5C37.8301 1.5 37.5 1.16992 37.5 0.75C37.5 0.330078 37.8301 0 38.25 0L38.27 0.0200195L38.27 1.47998ZM13.23 0.0200195L13.25 0C13.6699 0 14 0.330078 14 0.75C14 1.16992 13.6699 1.5 13.25 1.5L13.23 1.47998L13.23 0.0200195ZM0.0200195 38.27L0 38.25C0 37.8301 0.330078 37.5 0.75 37.5C1.16992 37.5 1.5 37.8301 1.5 38.25L1.47998 38.27L0.0200195 38.27ZM50.02 38.27L50 38.25C50 37.8301 50.3301 37.5 50.75 37.5C51.1699 37.5 51.5 37.8301 51.5 38.25L51.48 38.27L50.02 38.27ZM38.27 51.48L38.25 51.5C37.8301 51.5 37.5 51.1699 37.5 50.75C37.5 50.3301 37.8301 50 38.25 50L38.27 50.02L38.27 51.48ZM13.23 50.02L13.25 50C13.6699 50 14 50.3301 14 50.75C14 51.1699 13.6699 51.5 13.25 51.5L13.23 51.48L13.23 50.02Z" fill-rule="evenodd" fill="#0D42FF"/>
	<path id="Vector 7" d="M40.75 35.75L40.75 15.75" stroke="#0D42FF" stroke-width="1.500000" stroke-linejoin="round" stroke-linecap="round"/>
	<path id="Vector 2" d="M25.75 15.75L25.75 35.75" stroke="#0D42FF" stroke-width="1.500000" stroke-linejoin="round" stroke-linecap="round"/>
	<path id="Vector 2" d="M20.75 19.75L20.75 31.75" stroke="#0D42FF" stroke-width="1.500000" stroke-linejoin="round" stroke-linecap="round"/>
	<path id="Vector 10" d="M30.75 31.75L30.75 19.75" stroke="#0D42FF" stroke-width="1.500000" stroke-linejoin="round" stroke-linecap="round"/>
	<path id="Vector 9" d="M35.75 28.75L35.75 22.75" stroke="#0D42FF" stroke-width="1.500000" stroke-linejoin="round" stroke-linecap="round"/>
	<path id="Vector 8" d="M45.75 31.75L45.75 19.75" stroke="#0D42FF" stroke-width="1.500000" stroke-linejoin="round" stroke-linecap="round"/>
	<path id="Vector 4" d="M10.75 15.75L10.75 35.75" stroke="#0D42FF" stroke-width="1.500000" stroke-linejoin="round" stroke-linecap="round"/>
	<path id="Vector 3" d="M0.75 22.75L0.75 28.75" stroke="#0D42FF" stroke-width="1.500000" stroke-linejoin="round" stroke-linecap="round"/>
	<path id="Vector 2" d="M15.75 22.75L15.75 28.75" stroke="#0D42FF" stroke-width="1.500000" stroke-linejoin="round" stroke-linecap="round"/>
	<path id="Vector 5" d="M5.75 19.75L5.75 31.75" stroke="#0D42FF" stroke-width="1.500000" stroke-linejoin="round" stroke-linecap="round"/>
	<path id="Vector 6" d="M50.75 28.75L50.75 22.75" stroke="#0D42FF" stroke-width="1.500000" stroke-linejoin="round" stroke-linecap="round"/>
</svg>
