<svg width="1em" height="1em" viewBox="0 0 51 52" fill="none" xmlns="http://www.w3.org/2000/svg">
	<path d="M26 51.75C26.4142 51.75 26.75 51.4142 26.75 51C26.75 50.5858 26.4142 50.25 26 50.25L26 51.75ZM1.75 26C1.75 12.6071 12.6071 1.75 26 1.75L26 0.25C11.7787 0.250001 0.249997 11.7787 0.249998 26L1.75 26ZM26 50.25C12.6071 50.25 1.75 39.3929 1.75 26L0.249998 26C0.249999 40.2213 11.7787 51.75 26 51.75L26 50.25Z" fill="#0D42FF" />
	<path d="M1.75 26C1.75 22.8319 4.23443 19.7787 8.66834 17.473C13.0653 15.1866 19.1918 13.75 26 13.75C32.8082 13.75 38.9347 15.1866 43.3317 17.473C47.7656 19.7787 50.25 22.8319 50.25 26C50.25 29.1681 47.7656 32.2213 43.3317 34.527C38.9347 36.8134 32.8082 38.25 26 38.25C19.1918 38.25 13.0653 36.8134 8.66835 34.527C4.23443 32.2213 1.75 29.1681 1.75 26Z" stroke="#0D42FF" stroke-width="1.5"/>
	<circle cx="26" cy="26" r="12.25" transform="rotate(180 26 26)" stroke="#0D42FF" stroke-width="1.5"/>
</svg>
