<svg width="127.272461" height="16.000000" viewBox="0 0 127.272 16" fill="none" xmlns="http://www.w3.org/2000/svg" xmlns:xlink="http://www.w3.org/1999/xlink">
	<defs/>
	<path id="адмирал" d="M78.99 16L78.99 0.24L83.23 0.24L83.23 1.86L83.79 1.86C84.76 0.68 86.22 0 88.26 0L88.74 0C92.18 0 94.69 1.86 94.69 6.05L94.69 7.56C94.69 11.75 92.18 13.62 88.74 13.62L88.26 13.62C86.17 13.62 84.74 12.9 83.79 11.7L83.23 11.7L83.23 16L78.99 16ZM18.68 10.18L20.14 0.24L33.02 0.24L33.02 10.18L35.16 10.18L35.16 13.37L16.63 13.37L16.63 10.18L18.68 10.18ZM0.79 4.41L0.79 0.24L8.7 0.24C13.49 0.24 14.66 1.75 14.66 4.74L14.66 13.37L10.43 13.37L10.43 11.69L9.79 11.69C8.73 13.02 7.22 13.6 4.92 13.6C2.06 13.6 0 12.38 0 9.64C0 6.98 1.82 5.43 6.06 5.43L10.43 5.43L10.43 3.68C10.43 3.05 9.85 2.58 9.23 2.7L0.79 4.41ZM60.4 13.37L60.4 0.24L64.64 0.24L64.64 8.64L65.3 8.64L70.44 0.24L75.97 0.24L75.97 13.37L71.76 13.37L71.76 4.97L71.07 4.97L65.94 13.37L60.4 13.37ZM96.81 4.4L96.81 0.24L104.73 0.24C109.52 0.24 110.69 1.75 110.69 4.74L110.69 13.37L106.45 13.37L106.45 11.69L105.82 11.69C104.76 13.02 103.25 13.61 100.95 13.61C98.09 13.61 96.02 12.38 96.02 9.64C96.02 6.99 97.85 5.43 102.09 5.43L106.45 5.43L106.45 3.68C106.45 3.04 105.88 2.57 105.26 2.7L96.81 4.4ZM112.78 13.37L115.56 0.24L127.27 0.24L127.27 13.37L123.03 13.37L123.03 3.43L118.95 3.43L116.88 13.37L112.78 13.37ZM37.28 13.37L37.28 0.24L44.03 0.24L47.18 7.07L47.95 7.07L51.02 0.24L57.4 0.24L57.4 13.37L53.16 13.37L53.16 4.33L52.48 4.33L49.46 10.87L45.06 10.87L41.96 4.33L41.28 4.33L41.28 13.37L37.28 13.37ZM87.07 3.19L86.59 3.19C84.58 3.19 83.23 4.11 83.23 6L83.23 7.59C83.23 9.5 84.58 10.42 86.59 10.42L87.07 10.42C89.11 10.42 90.46 9.48 90.46 7.59L90.46 6C90.46 4.14 89.11 3.19 87.07 3.19ZM28.78 3.43L23.58 3.43L22.6 10.18L28.78 10.18L28.78 3.43ZM10.43 7.78L6.64 7.78C4.87 7.78 4.18 8.26 4.18 9.23C4.18 10.1 4.92 10.64 6.69 10.64C8.47 10.64 10.43 10.03 10.43 8.16L10.43 7.78ZM106.45 7.78L102.67 7.78C100.89 7.78 100.21 8.26 100.21 9.24C100.21 10.1 100.95 10.64 102.72 10.64C104.5 10.64 106.45 10.03 106.45 8.16L106.45 7.78Z" fill-rule="evenodd"/>
</svg>
