<svg width="50" height="50" viewBox="0 0 50 50" fill="none" xmlns="http://www.w3.org/2000/svg">
<circle cx="25" cy="25" r="24.5" stroke="white"/>
<mask id="path-2-inside-1_798_3785" fill="white">
<path fill-rule="evenodd" clip-rule="evenodd" d="M28.5 7.5H42C42.2762 7.5 42.5 7.72386 42.5 8V21.5C42.5 21.7761 42.2762 22 42 22C41.7239 22 41.5 21.7761 41.5 21.5V9.20711L8.35359 42.3536L7.64648 41.6464L40.7929 8.5H28.5C28.2239 8.5 28 8.27614 28 8C28 7.72386 28.2239 7.5 28.5 7.5Z"/>
</mask>
<path fill-rule="evenodd" clip-rule="evenodd" d="M28.5 7.5H42C42.2762 7.5 42.5 7.72386 42.5 8V21.5C42.5 21.7761 42.2762 22 42 22C41.7239 22 41.5 21.7761 41.5 21.5V9.20711L8.35359 42.3536L7.64648 41.6464L40.7929 8.5H28.5C28.2239 8.5 28 8.27614 28 8C28 7.72386 28.2239 7.5 28.5 7.5Z" fill="white"/>
<path d="M41.5 9.20711H42.5V6.79289L40.7929 8.5L41.5 9.20711ZM8.35359 42.3536L7.64648 43.0607L8.35359 43.7678L9.0607 43.0607L8.35359 42.3536ZM7.64648 41.6464L6.93938 40.9393L6.23227 41.6464L6.93938 42.3536L7.64648 41.6464ZM40.7929 8.5L41.5 9.20711L43.2071 7.5H40.7929V8.5ZM42 6.5H28.5V8.5H42V6.5ZM43.5 8C43.5 7.17157 42.8285 6.5 42 6.5V8.5C41.7239 8.5 41.5 8.27614 41.5 8H43.5ZM43.5 21.5V8H41.5V21.5H43.5ZM42 23C42.8285 23 43.5 22.3284 43.5 21.5H41.5C41.5 21.2239 41.7239 21 42 21V23ZM40.5 21.5C40.5 22.3284 41.1716 23 42 23V21C42.2762 21 42.5 21.2239 42.5 21.5H40.5ZM40.5 9.20711V21.5H42.5V9.20711H40.5ZM9.0607 43.0607L42.2071 9.91421L40.7929 8.5L7.64648 41.6464L9.0607 43.0607ZM6.93938 42.3536L7.64648 43.0607L9.0607 41.6464L8.35359 40.9393L6.93938 42.3536ZM40.0858 7.79289L6.93938 40.9393L8.35359 42.3536L41.5 9.20711L40.0858 7.79289ZM28.5 9.5H40.7929V7.5H28.5V9.5ZM27 8C27 8.82843 27.6716 9.5 28.5 9.5V7.5C28.7762 7.5 29 7.72386 29 8H27ZM28.5 6.5C27.6716 6.5 27 7.17157 27 8H29C29 8.27614 28.7762 8.5 28.5 8.5V6.5Z" fill="white" mask="url(#path-2-inside-1_798_3785)"/>
</svg>
