<svg width="30" height="30" viewBox="0 0 30 30" fill="none" xmlns="http://www.w3.org/2000/svg">
<!-- <circle opacity="0.2" cx="15" cy="15" r="15" fill="white"/> -->
<path d="M20.1747 21.1139C20.4506 20.2674 21.7432 11.8309 21.903 10.1685C21.9512 9.66499 21.7921 9.33042 21.4804 9.18107C21.1034 8.99977 20.5452 9.09042 19.8975 9.3239C19.0093 9.64412 7.65363 14.4656 6.99754 14.7448C6.37537 15.0089 5.78711 15.2972 5.78711 15.7146C5.78711 16.008 5.96124 16.173 6.44124 16.3446C6.94081 16.5226 8.19885 16.9041 8.94167 17.1089C9.65711 17.3065 10.4717 17.135 10.9282 16.8513C11.4121 16.5506 16.9967 12.8137 17.3978 12.4863C17.7982 12.1589 18.1178 12.5782 17.7904 12.9063C17.463 13.2337 13.6295 16.9543 13.1241 17.4696C12.5104 18.095 12.946 18.7432 13.3575 19.0028C13.8278 19.2989 17.2093 21.5672 17.7186 21.9311C18.228 22.295 18.7445 22.46 19.2173 22.46C19.6902 22.46 19.9393 21.8372 20.1747 21.1139Z" fill="white"/>
</svg>
