<svg width="24" height="24" viewBox="0 0 24 24" fill="none" xmlns="http://www.w3.org/2000/svg">
	<path id="Shape" d="M11.66 0C12.08 0 12.42 0.33 12.42 0.75L12.42 0.75L12.42 3.61C12.42 4.03 12.08 4.37 11.66 4.37C11.24 4.37 10.9 4.03 10.9 3.61L10.9 3.61L10.9 0.75C10.9 0.33 11.24 0 11.66 0ZM3.41 3.41C3.71 3.12 4.19 3.12 4.48 3.41L6.5 5.43C6.65 5.58 6.73 5.77 6.73 5.97C6.73 6.16 6.65 6.35 6.5 6.5C6.21 6.8 5.73 6.8 5.43 6.5L3.41 4.48C3.26 4.34 3.19 4.14 3.19 3.95C3.19 3.75 3.26 3.56 3.41 3.41ZM20.13 3.95C20.13 4.14 20.06 4.34 19.91 4.48L17.89 6.5C17.6 6.8 17.12 6.8 16.82 6.5C16.67 6.36 16.6 6.16 16.6 5.97C16.6 5.77 16.67 5.58 16.82 5.43L18.84 3.41C19.13 3.12 19.61 3.12 19.91 3.41C20.06 3.56 20.13 3.75 20.13 3.95ZM17.49 11.66C17.49 14.88 14.88 17.49 11.66 17.49C8.44 17.49 5.83 14.88 5.83 11.66C5.83 8.44 8.44 5.83 11.66 5.83C14.88 5.83 17.49 8.44 17.49 11.66ZM11.66 15.98C14.05 15.98 15.98 14.05 15.98 11.66C15.98 9.28 14.05 7.34 11.66 7.34C9.28 7.34 7.34 9.28 7.34 11.66C7.34 14.05 9.28 15.98 11.66 15.98ZM23.33 11.66C23.33 12.08 22.99 12.42 22.57 12.42L19.71 12.42C19.3 12.42 18.96 12.08 18.96 11.66C18.96 11.24 19.3 10.9 19.71 10.9L22.57 10.9C22.99 10.9 23.33 11.24 23.33 11.66ZM0 11.66C0 11.24 0.33 10.9 0.75 10.9L3.61 10.9C4.03 10.9 4.37 11.24 4.37 11.66L4.37 11.66C4.37 12.08 4.03 12.42 3.61 12.42L0.75 12.42C0.33 12.42 0 12.08 0 11.66L0 11.66ZM3.41 19.91C3.26 19.76 3.19 19.57 3.19 19.37C3.19 19.18 3.26 18.99 3.41 18.84L5.43 16.82C5.73 16.52 6.21 16.52 6.5 16.82C6.65 16.97 6.73 17.16 6.73 17.36C6.73 17.55 6.65 17.74 6.5 17.89L4.48 19.91C4.19 20.21 3.71 20.21 3.41 19.91ZM19.91 19.91C19.61 20.21 19.13 20.21 18.84 19.91L16.82 17.89C16.67 17.74 16.6 17.55 16.6 17.36C16.6 17.16 16.67 16.97 16.82 16.82C17.12 16.52 17.6 16.52 17.89 16.82L19.91 18.84C20.06 18.99 20.13 19.18 20.13 19.37C20.13 19.57 20.06 19.76 19.91 19.91ZM11.66 23.33C11.24 23.33 10.9 22.99 10.9 22.57L10.9 19.71C10.9 19.29 11.24 18.96 11.66 18.96C12.08 18.96 12.42 19.29 12.42 19.71L12.42 22.57C12.42 22.99 12.08 23.33 11.66 23.33Z" fill="#35383A" fill-opacity="1.000000" fill-rule="evenodd"/>
</svg>
