<svg width="20.000000" height="19.000000" viewBox="0 0 20 19" fill="none" xmlns="http://www.w3.org/2000/svg" xmlns:xlink="http://www.w3.org/1999/xlink">
	<defs/>
	<path id="Union" d="M12.0228 9.5L19.5654 2.38831C19.6426 2.31543 19.71 2.23657 19.7675 2.15173C19.8157 2.08057 19.8568 2.005 19.8911 1.92529C19.9264 1.84338 19.953 1.75977 19.9712 1.67456C19.973 1.66614 19.9747 1.65759 19.9763 1.64905C19.9921 1.56702 20 1.48328 20 1.39819C20 1.3042 19.9904 1.21204 19.9712 1.12183C19.953 1.0365 19.9264 0.953003 19.8911 0.870972C19.8568 0.791382 19.8157 0.71582 19.7675 0.644653C19.71 0.559814 19.6426 0.480957 19.5654 0.408081C19.4913 0.338257 19.4114 0.276978 19.3256 0.224365C19.2473 0.176392 19.1642 0.135498 19.0762 0.101929C18.9916 0.0695801 18.9054 0.0449219 18.8175 0.0279541C18.7208 0.00927734 18.6221 0 18.5214 0C18.4205 0 18.3218 0.00927734 18.2251 0.0279541C18.1372 0.0449219 18.051 0.0695801 17.9666 0.101929C17.8785 0.135498 17.7953 0.176392 17.717 0.224365C17.6312 0.276978 17.5513 0.338257 17.4772 0.408081L9.92871 7.52551L2.52283 0.542603C2.44873 0.472778 2.36877 0.411499 2.28296 0.358887C2.20471 0.310913 2.12158 0.270142 2.03345 0.23645C1.94897 0.204102 1.86267 0.179443 1.7749 0.162476C1.6781 0.143799 1.57947 0.134521 1.47864 0.134521C1.37793 0.134521 1.27917 0.143921 1.18237 0.162476C1.0946 0.179443 1.00842 0.204102 0.923828 0.23645C0.835938 0.27002 0.752808 0.310913 0.674438 0.358887C0.588623 0.411499 0.508667 0.472778 0.43457 0.542603C0.357422 0.615479 0.290039 0.694336 0.232544 0.779175C0.184326 0.850342 0.143188 0.925903 0.108887 1.00562C0.0736084 1.08752 0.0469971 1.17102 0.0288086 1.25623C0.00964355 1.34656 0 1.43872 0 1.53271C0 1.62671 0.00964355 1.71887 0.0288086 1.80908C0.0469971 1.89441 0.0736084 1.97791 0.108887 2.05981C0.143188 2.13953 0.184326 2.21509 0.232544 2.28625C0.290039 2.37109 0.3573 2.44995 0.43457 2.52283L7.83447 9.5L0.43457 16.4772C0.357422 16.55 0.290039 16.6288 0.232666 16.7137C0.184448 16.7849 0.143188 16.8604 0.108887 16.9402C0.0736084 17.0221 0.0469971 17.1056 0.0288086 17.1908C0.00964355 17.2811 0 17.3733 0 17.4673C0 17.5613 0.00964355 17.6534 0.0288086 17.7438C0.0469971 17.829 0.0736084 17.9125 0.108887 17.9944C0.143188 18.0741 0.184326 18.1495 0.232544 18.2208C0.290039 18.3057 0.3573 18.3845 0.43457 18.4574C0.508667 18.5272 0.588623 18.5885 0.674438 18.6411C0.752686 18.6891 0.835815 18.7299 0.923828 18.7635C1.00842 18.7959 1.09473 18.8206 1.1825 18.8375C1.2793 18.8562 1.37793 18.8655 1.47864 18.8655C1.57947 18.8655 1.67822 18.8561 1.7749 18.8375C1.86279 18.8206 1.94897 18.7959 2.03345 18.7635C2.12158 18.7299 2.20471 18.6891 2.28308 18.641C2.36877 18.5884 2.44873 18.5272 2.52283 18.4574L9.92871 11.4745L17.4772 18.5919C17.5513 18.6617 17.6313 18.723 17.7172 18.7758C17.7954 18.8236 17.8785 18.8645 17.9666 18.8981C18.051 18.9304 18.1372 18.9551 18.225 18.972C18.3218 18.9907 18.4205 19 18.5214 19C18.6221 19 18.7208 18.9907 18.8176 18.972C18.9054 18.9551 18.9916 18.9304 19.0762 18.8981C19.1642 18.8645 19.2473 18.8236 19.3256 18.7756C19.4114 18.723 19.4913 18.6617 19.5654 18.5919C19.6426 18.5192 19.71 18.4403 19.7673 18.3555C19.8156 18.2842 19.8568 18.2087 19.8911 18.1289C19.9264 18.047 19.953 17.9634 19.9712 17.8782C19.9904 17.788 20 17.6958 20 17.6018C20 17.5078 19.9904 17.4156 19.9712 17.3253C19.953 17.2401 19.9264 17.1566 19.8911 17.0747C19.8568 16.995 19.8157 16.9196 19.7675 16.8483C19.71 16.7634 19.6427 16.6846 19.5654 16.6117L12.0228 9.5ZM1 0.788208C0.937988 0.82373 0.879517 0.866699 0.825928 0.917236C0.73584 1.0022 0.668213 1.10034 0.623169 1.2052C0.668213 1.10034 0.73584 1.0022 0.825928 0.917236C0.879517 0.866699 0.937988 0.82373 1 0.788208Z" clip-rule="evenodd" fill="#35383A" fill-opacity="1.000000" fill-rule="evenodd"/>
</svg>
