<svg width="21.000000" height="21.031372" viewBox="0 0 21 21.0314" fill="none" xmlns="http://www.w3.org/2000/svg" xmlns:xlink="http://www.w3.org/1999/xlink">
	<defs/>
	<path id="Shape" d="M11.25 3.59L11.25 0.75C11.25 0.33 10.91 0 10.5 0C10.08 0 9.74 0.33 9.74 0.75L9.74 3.59C8.17 3.94 7 5.34 7 7.01C7 8.95 8.56 10.51 10.5 10.51C12.43 10.51 14 8.95 14 7.01C14 5.34 12.82 3.94 11.25 3.59ZM3.5 8.38C3.91 8.38 4.25 8.04 4.25 7.62L4.25 0.75C4.25 0.33 3.91 0 3.5 0C3.08 0 2.74 0.33 2.74 0.75L2.74 7.62C2.74 8.04 3.08 8.38 3.5 8.38ZM17.5 0C17.91 0 18.25 0.33 18.25 0.75L18.25 7.62C18.25 8.04 17.91 8.38 17.5 8.38C17.08 8.38 16.74 8.04 16.74 7.62L16.74 0.75C16.74 0.33 17.08 0 17.5 0ZM10.5 5.03C11.59 5.03 12.48 5.92 12.48 7.01C12.48 8.11 11.59 9 10.5 9C9.4 9 8.51 8.11 8.51 7.01C8.51 5.92 9.4 5.03 10.5 5.03ZM4.25 20.27C4.25 20.69 3.91 21.03 3.5 21.03C3.08 21.03 2.74 20.69 2.74 20.27L2.74 17.43C1.17 17.08 0 15.68 0 14.01C0 12.08 1.56 10.51 3.5 10.51C5.43 10.51 7 12.08 7 14.01C7 15.68 5.82 17.08 4.25 17.43L4.25 20.27ZM18.25 17.43C19.82 17.08 21 15.68 21 14.01C21 12.08 19.43 10.51 17.5 10.51C15.56 10.51 14 12.08 14 14.01C14 15.68 15.17 17.08 16.74 17.43L16.74 20.27C16.74 20.69 17.08 21.03 17.5 21.03C17.91 21.03 18.25 20.69 18.25 20.27L18.25 17.43ZM3.5 12.03C4.59 12.03 5.48 12.91 5.48 14.01C5.48 15.1 4.59 15.99 3.5 15.99C2.4 15.99 1.51 15.1 1.51 14.01C1.51 12.91 2.4 12.03 3.5 12.03ZM19.48 14.01C19.48 15.11 18.59 16 17.5 16C16.4 16 15.51 15.11 15.51 14.01C15.51 12.92 16.4 12.03 17.5 12.03C18.59 12.03 19.48 12.92 19.48 14.01ZM10.5 21.03C10.91 21.03 11.25 20.69 11.25 20.27L11.25 13.43C11.25 13.01 10.91 12.67 10.5 12.67C10.08 12.67 9.74 13.01 9.74 13.43L9.74 20.27C9.74 20.69 10.08 21.03 10.5 21.03Z" fill="#FFFFFF" fill-opacity="1.000000" fill-rule="evenodd"/>
</svg>
