<svg width="123.005859" height="123.005859" viewBox="0 0 123.006 123.006" fill="none" xmlns="http://www.w3.org/2000/svg" xmlns:xlink="http://www.w3.org/1999/xlink">
	<defs/>
	<path id="Rectangle 35977" d="M123 38.873L123 97.9058Q123 99.3555 121.975 100.381Q120.95 101.406 119.5 101.406L3.5 101.406Q2.05029 101.406 1.0249 100.381Q0 99.3555 0 97.9058L0 3.50586Q0 2.05615 1.0249 1.03076Q2.05029 0.00585938 3.5 0.00585938L98.7222 0.00585938L98.7222 3.00586L3.5 3.00586Q3 3.00586 3 3.50586L3 97.9058Q3 98.1128 3.14648 98.2593Q3.29297 98.4058 3.5 98.4058L119.5 98.4058Q120 98.4058 120 97.9058L120 38.873L123 38.873ZM98.7021 0.0258789L98.7222 0.00585938C99.562 0.00585938 100.222 0.666016 100.222 1.50586C100.222 2.3457 99.562 3.00586 98.7222 3.00586L98.7021 2.98584L98.7021 0.0258789ZM120.02 38.8931L120 38.873C120 38.0327 120.66 37.373 121.5 37.373C122.34 37.373 123 38.0332 123 38.873L122.98 38.8931L120.02 38.8931Z" fill-rule="evenodd" fill="#0D42FF"/>
	<path id="Vector 18" d="M35.1001 121.506L90.3003 121.506" stroke="#0D42FF" stroke-width="3.000000" stroke-linejoin="round" stroke-linecap="round"/>
	<path id="Vector 19" d="M69.8999 30.3057L84.8999 45.9058L121.5 1.50586" stroke="#0D42FF" stroke-width="3.000000" stroke-linejoin="round" stroke-linecap="round"/>
</svg>
