<svg width="175.000000" height="22.000000" viewBox="0 0 175 22" fill="none" xmlns="http://www.w3.org/2000/svg" xmlns:xlink="http://www.w3.org/1999/xlink">
	<defs/>
	<path id="адмирал" d="M108.62 22L108.62 0.33L114.44 0.33L114.44 2.56L115.21 2.56C116.55 0.94 118.56 0 121.36 0L122.01 0C126.75 0 130.21 2.56 130.21 8.32L130.21 10.4C130.21 16.16 126.75 18.72 122.01 18.72L121.36 18.72C118.48 18.72 116.52 17.74 115.21 16.09L114.44 16.09L114.44 22L108.62 22ZM25.69 13.99L27.69 0.33L45.4 0.33L45.4 13.99L48.35 13.99L48.35 18.39L22.87 18.39L22.87 13.99L25.69 13.99ZM1.08 6.06L1.08 0.33L11.96 0.33C18.55 0.33 20.16 2.4 20.16 6.51L20.16 18.39L14.34 18.39L14.34 16.07L13.47 16.07C12.01 17.9 9.93 18.71 6.77 18.71C2.83 18.71 0 17.02 0 13.26C0 9.61 2.51 7.46 8.33 7.46L14.34 7.46L14.34 4.61C14.34 3.97 13.76 3.5 13.14 3.63L1.08 6.06ZM83.05 18.38L83.05 0.33L88.88 0.33L88.88 11.88L89.79 11.88L96.85 0.33L104.46 0.33L104.46 18.38L98.67 18.38L98.67 6.83L97.73 6.83L90.66 18.38L83.05 18.38ZM133.12 6.06L133.12 0.33L144 0.33C150.59 0.33 152.2 2.4 152.2 6.52L152.2 18.39L146.38 18.39L146.38 16.07L145.5 16.07C144.05 17.9 141.97 18.71 138.8 18.71C134.87 18.71 132.03 17.02 132.03 13.26C132.03 9.61 134.54 7.46 140.37 7.46L146.38 7.46L146.38 4.6C146.38 3.97 145.8 3.49 145.18 3.62L133.12 6.06ZM155.08 18.39L158.9 0.33L175 0.33L175 18.39L169.17 18.39L169.17 4.72L163.56 4.72L160.71 18.39L155.08 18.39ZM51.26 18.38L51.26 0.33L60.54 0.33L64.87 9.72L65.93 9.72L70.15 0.33L78.93 0.33L78.93 18.38L73.1 18.38L73.1 5.96L72.16 5.96L68.01 14.95L61.96 14.95L57.7 5.96L56.76 5.96L56.76 18.38L51.26 18.38ZM119.72 4.39L119.07 4.39C116.3 4.39 114.44 5.65 114.44 8.25L114.44 10.43C114.44 13.07 116.3 14.33 119.07 14.33L119.72 14.33C122.52 14.33 124.38 13.03 124.38 10.43L124.38 8.25C124.38 5.69 122.52 4.39 119.72 4.39ZM39.58 4.72L32.42 4.72L31.07 13.99L39.58 13.99L39.58 4.72ZM14.34 10.7L9.13 10.7C6.69 10.7 5.75 11.36 5.75 12.7C5.75 13.89 6.77 14.63 9.21 14.63C11.64 14.63 14.34 13.79 14.34 11.22L14.34 10.7ZM146.38 10.7L141.17 10.7C138.73 10.7 137.78 11.36 137.78 12.7C137.78 13.89 138.8 14.63 141.24 14.63C143.68 14.63 146.38 13.79 146.38 11.22L146.38 10.7Z" fill="#FFFFFF" fill-opacity="1.000000" fill-rule="evenodd"/>
</svg>
